<svg width="161" height="31" viewBox="0 0 161 31" fill="none" xmlns="http://www.w3.org/2000/svg">
<mask id="mask0_1_474" style="mask-type:luminance" maskUnits="userSpaceOnUse" x="0" y="0" width="161" height="31">
<path d="M160.708 0.418945H0V30.094H160.708V0.418945Z" fill="white"/>
</mask>
<g mask="url(#mask0_1_474)">
<path d="M21.7773 19.2348C21.7773 12.9766 26.1329 8.39551 32.3357 8.39551C38.5385 8.39551 42.894 12.9766 42.894 19.2348C42.894 25.4929 38.5385 30.0741 32.3357 30.0741C26.1329 30.0741 21.7773 25.4929 21.7773 19.2348ZM38.0718 19.2348C38.0718 15.6149 35.7773 13.0175 32.3162 13.0175C28.8551 13.0175 26.5218 15.5944 26.5218 19.2348C26.5218 22.8752 28.8551 25.452 32.3162 25.452C35.7773 25.452 38.0718 22.8752 38.0718 19.2348Z" fill="#241F20"/>
<path d="M45.5782 19.0707V0.418945H50.3032V11.9331C51.6838 9.64256 54.0366 8.39502 56.856 8.39502C61.6199 8.39502 66.6171 11.974 66.6171 19.0298C66.6171 25.5743 62.2616 30.0736 56.0199 30.0736C49.7782 30.0736 45.5977 25.7379 45.5977 19.0707M61.8532 19.2343C61.8532 15.6144 59.5199 13.0171 56.0588 13.0171C52.5977 13.0171 50.3032 15.5939 50.3032 19.2343C50.3032 22.8747 52.5977 25.4516 56.0588 25.4516C59.5199 25.4516 61.8532 22.8747 61.8532 19.2343Z" fill="#241F20"/>
<path d="M66.6553 8.96772H71.8275L77.6997 25.4925L83.1247 8.94727H88.1803L80.4803 30.0327H74.8025L66.6553 8.96772Z" fill="#241F20"/>
<path d="M95.7831 8.94727H91.0581V29.5624H95.7831V8.94727Z" fill="#241F20"/>
<path d="M98.3696 19.2348C98.3696 12.9766 102.725 8.39551 108.928 8.39551C115.131 8.39551 119.486 12.9766 119.486 19.2348C119.486 25.4929 115.131 30.0741 108.928 30.0741C102.725 30.0741 98.3696 25.4929 98.3696 19.2348ZM114.664 19.2348C114.664 15.6149 112.37 13.0175 108.909 13.0175C105.447 13.0175 103.114 15.5944 103.114 19.2348C103.114 22.8752 105.447 25.452 108.909 25.452C112.37 25.452 114.664 22.8752 114.664 19.2348Z" fill="#241F20"/>
<path d="M144.259 23.4477H149.023C149.062 24.818 150.209 25.7383 152.503 25.7383C154.914 25.7383 155.945 24.6953 155.945 23.4477C155.945 21.873 154.195 21.648 152.095 21.3617C149.081 20.9527 144.648 20.4005 144.648 15.349C144.648 11.136 147.7 8.375 152.425 8.375C157.15 8.375 160.164 11.2178 160.281 14.8377H155.595C155.478 13.5901 154.37 12.7107 152.503 12.7107C150.442 12.7107 149.412 13.7537 149.412 14.9604C149.412 16.5556 151.2 16.801 153.3 17.0873C155.925 17.4555 160.709 18.0076 160.709 23.141C160.709 27.3131 157.5 30.074 152.503 30.074C147.506 30.074 144.375 27.2722 144.259 23.4477Z" fill="#241F20"/>
<path d="M0 19.8274V19.6229H4.95833V19.8274C4.95833 23.161 6.55278 25.1243 9.83889 25.1243C13.125 25.1243 14.6417 23.161 14.6417 19.8274V0.418945H19.7167V19.8274C19.7167 26.0447 16.1778 30.0531 9.8 30.0531C3.42222 30.0531 0 26.0447 0 19.8274Z" fill="#241F20"/>
<path d="M131.949 30.0941C126.155 30.0941 122.266 26.556 122.266 19.6638V14.3056H126.991V19.6638C126.991 23.5905 128.974 25.4721 131.949 25.4721C134.924 25.4721 136.908 23.5905 136.908 19.6638L136.733 8.94727H141.458L141.633 19.6638C141.633 26.5969 137.744 30.0941 131.949 30.0941Z" fill="#241F20"/>
<path d="M141.42 3.38479C141.42 1.97363 140.448 0.910156 139.106 0.910156C137.764 0.910156 136.792 1.95318 136.792 3.38479C136.792 4.81639 137.764 5.81851 139.106 5.81851C140.448 5.81851 141.42 4.79594 141.42 3.38479Z" fill="#FFB71B"/>
<path d="M126.739 8.68166C126.739 7.27051 125.767 6.20703 124.425 6.20703C123.084 6.20703 122.111 7.25006 122.111 8.68166C122.111 10.1133 123.084 11.1154 124.425 11.1154C125.767 11.1154 126.739 10.0928 126.739 8.68166Z" fill="#FFB71B"/>
</g>
</svg>
